<?xml version="1.0" encoding="UTF-8" standalone="no"?>
<!-- Created with Inkscape (http://www.inkscape.org/) -->

<svg
   xmlns:dc="http://purl.org/dc/elements/1.1/"
   xmlns:cc="http://creativecommons.org/ns#"
   xmlns:rdf="http://www.w3.org/1999/02/22-rdf-syntax-ns#"
   xmlns:svg="http://www.w3.org/2000/svg"
   xmlns="http://www.w3.org/2000/svg"
   xmlns:sodipodi="http://sodipodi.sourceforge.net/DTD/sodipodi-0.dtd"
   xmlns:inkscape="http://www.inkscape.org/namespaces/inkscape"
   width="159.26198"
   height="180.55487"
   id="svg4592"
   version="1.1"
   inkscape:version="0.48.4 r9939"
   sodipodi:docname="New document 18">
  <defs
     id="defs4594" />
  <sodipodi:namedview
     id="base"
     pagecolor="#ffffff"
     bordercolor="#666666"
     borderopacity="1.0"
     inkscape:pageopacity="0.0"
     inkscape:pageshadow="2"
     inkscape:zoom="7.9195959"
     inkscape:cx="71.036645"
     inkscape:cy="116.58892"
     inkscape:document-units="px"
     inkscape:current-layer="layer1"
     showgrid="false"
     fit-margin-top="0"
     fit-margin-left="0"
     fit-margin-right="0"
     fit-margin-bottom="0"
     inkscape:window-width="1301"
     inkscape:window-height="744"
     inkscape:window-x="65"
     inkscape:window-y="24"
     inkscape:window-maximized="1" />
  <metadata
     id="metadata4597">
    <rdf:RDF>
      <cc:Work
         rdf:about="">
        <dc:format>image/svg+xml</dc:format>
        <dc:type
           rdf:resource="http://purl.org/dc/dcmitype/StillImage" />
        <dc:title></dc:title>
      </cc:Work>
    </rdf:RDF>
  </metadata>
  <g
     inkscape:label="Layer 1"
     inkscape:groupmode="layer"
     id="layer1"
     transform="translate(-163.22615,-90.656174)">
    <rect
       style="fill:#e6e6e6;fill-opacity:1;stroke:none"
       id="rect5207-9-7"
       width="159.26198"
       height="180.55487"
       x="163.22615"
       y="90.656174"
       ry="32.26646" />
    <path
       sodipodi:type="arc"
       style="fill:none;stroke:#333333;stroke-width:3;stroke-miterlimit:4;stroke-opacity:1;stroke-dasharray:none"
       id="path5348"
       sodipodi:cx="490"
       sodipodi:cy="137.36218"
       sodipodi:rx="50"
       sodipodi:ry="45"
       d="m 540,137.36218 c 0,24.85282 -22.38576,45 -50,45 -27.61424,0 -50,-20.14718 -50,-45 0,-24.85281 22.38576,-44.999997 50,-44.999997 27.61424,0 50,20.147187 50,44.999997 z"
       transform="matrix(0.67019313,0,0,0.68858017,-83.721346,65.493777)" />
    <path
       sodipodi:type="arc"
       style="fill:#333333;fill-opacity:1;stroke:none"
       id="path5351"
       sodipodi:cx="475"
       sodipodi:cy="127.36218"
       sodipodi:rx="5"
       sodipodi:ry="5"
       d="m 480,127.36218 c 0,2.76143 -2.23858,5 -5,5 -2.76142,0 -5,-2.23857 -5,-5 0,-2.76142 2.23858,-5 5,-5 2.76142,0 5,2.23858 5,5 z"
       transform="matrix(0.9159735,0,0,0.89128558,-198.64837,37.964836)" />
    <path
       sodipodi:type="arc"
       style="fill:#333333;fill-opacity:1;stroke:none"
       id="path5351-8"
       sodipodi:cx="475"
       sodipodi:cy="127.36218"
       sodipodi:rx="5"
       sodipodi:ry="5"
       d="m 480,127.36218 c 0,2.76143 -2.23858,5 -5,5 -2.76142,0 -5,-2.23857 -5,-5 0,-2.76142 2.23858,-5 5,-5 2.76142,0 5,2.23858 5,5 z"
       transform="matrix(0.9159735,0,0,0.89128558,-180.46699,37.964833)" />
    <path
       style="fill:none;stroke:#333333;stroke-width:1.8070904;stroke-linecap:butt;stroke-linejoin:miter;stroke-miterlimit:4;stroke-opacity:1;stroke-dasharray:none"
       d="m 226.67766,164.53508 c 11.90765,12.1809 24.12063,12.18089 36.63893,0 l 0,0 0,0"
       id="path5404"
       inkscape:connector-curvature="0"
       sodipodi:nodetypes="cccc" />
    <text
       xml:space="preserve"
       style="font-size:40px;font-style:normal;font-weight:normal;line-height:125%;letter-spacing:0px;word-spacing:0px;fill:#333333;fill-opacity:1;stroke:none;font-family:Sans"
       x="210.51033"
       y="231.67485"
       id="text5200-6-0"
       sodipodi:linespacing="125%"><tspan
         sodipodi:role="line"
         id="tspan5202-8-6"
         x="210.51033"
         y="231.67485"
         style="font-size:30px;font-style:normal;font-variant:normal;font-weight:normal;font-stretch:normal;fill:#333333;font-family:Nimbus Sans L;-inkscape-font-specification:Nimbus Sans L">Easy</tspan></text>
  </g>
</svg>
