<?xml version="1.0" encoding="UTF-8" standalone="no"?>
<!-- Created with Inkscape (http://www.inkscape.org/) -->

<svg
   xmlns:dc="http://purl.org/dc/elements/1.1/"
   xmlns:cc="http://creativecommons.org/ns#"
   xmlns:rdf="http://www.w3.org/1999/02/22-rdf-syntax-ns#"
   xmlns:svg="http://www.w3.org/2000/svg"
   xmlns="http://www.w3.org/2000/svg"
   version="1.1"
   width="159.26198"
   height="180.55487"
   id="svg4592">
  <defs
     id="defs4594" />
  <metadata
     id="metadata4597">
    <rdf:RDF>
      <cc:Work
         rdf:about="">
        <dc:format>image/svg+xml</dc:format>
        <dc:type
           rdf:resource="http://purl.org/dc/dcmitype/StillImage" />
        <dc:title></dc:title>
      </cc:Work>
    </rdf:RDF>
  </metadata>
  <g
     transform="translate(-163.22615,-90.656174)"
     id="layer1">
    <rect
       width="159.26198"
       height="180.55487"
       ry="32.26646"
       x="163.22615"
       y="90.656174"
       id="rect5207-9-7"
       style="fill:#e6e6e6;fill-opacity:1;stroke:none" />
    <path
       d="m 540,137.36218 a 50,45 0 1 1 -100,0 50,45 0 1 1 100,0 z"
       transform="matrix(0.67019313,0,0,0.68858017,-83.721346,65.493777)"
       id="path5348"
       style="fill:none;stroke:#333333;stroke-width:3;stroke-miterlimit:4;stroke-opacity:1;stroke-dasharray:none" />
    <path
       d="m 480,127.36218 a 5,5 0 1 1 -10,0 5,5 0 1 1 10,0 z"
       transform="matrix(0.9159735,0,0,0.89128558,-198.64837,37.964836)"
       id="path5351"
       style="fill:#333333;fill-opacity:1;stroke:none" />
    <path
       d="m 480,127.36218 a 5,5 0 1 1 -10,0 5,5 0 1 1 10,0 z"
       transform="matrix(0.9159735,0,0,0.89128558,-180.46699,37.964833)"
       id="path5351-8"
       style="fill:#333333;fill-opacity:1;stroke:none" />
    <path
       d="m 226.67766,164.53508 c 11.90765,12.1809 24.12063,12.18089 36.63893,0 l 0,0 0,0"
       id="path5404"
       style="fill:none;stroke:#333333;stroke-width:1.8070904;stroke-linecap:butt;stroke-linejoin:miter;stroke-miterlimit:4;stroke-opacity:1;stroke-dasharray:none" />
    <text
       x="210.51033"
       y="231.67485"
       id="text5200-6-0"
       xml:space="preserve"
       style="font-size:40px;font-style:normal;font-weight:normal;line-height:125%;letter-spacing:0px;word-spacing:0px;fill:#333333;fill-opacity:1;stroke:none;font-family:Sans"><tspan
         x="210.51033"
         y="231.67485"
         id="tspan5202-8-6"
         style="font-size:30px;font-style:normal;font-variant:normal;font-weight:normal;font-stretch:normal;fill:#333333;font-family:Nimbus Sans L;-inkscape-font-specification:Nimbus Sans L">Easy</tspan></text>
  </g>
</svg>
